<svg width="1942" height="343" viewBox="0 0 1942 343" fill="none" xmlns="http://www.w3.org/2000/svg">
<path d="M247.295 300.888C146.499 347.524 31.7392 294.744 1.92626 188.672C1.18396 186.031 0.470657 183.341 0.163405 180.626C-0.962 170.683 3.78492 163.498 12.5762 162.445C21.7703 161.345 26.4715 166.498 28.6303 174.931C35.7202 202.629 49.4315 226.45 69.9298 246.523C148.923 323.878 281.123 288.426 310.66 181.869C311.58 178.549 312.206 175.117 313.446 171.922C316.114 165.053 321.349 161.163 328.701 162.167C336.546 163.24 340.738 168.568 340.948 176.493C341.192 185.642 337.864 194.106 334.85 202.486C318.953 246.681 290.111 279.522 247.295 300.888Z" fill="white"/>
<path d="M100.526 88.5515C112.738 95.0581 120.006 105.905 129.299 114.524C138.132 122.715 146.839 131.128 154.791 140.156C160.921 147.114 165.344 146.446 171.514 140.265C202.17 109.558 233.126 79.1513 263.974 48.6364C268.871 43.7924 273.702 38.8804 278.658 34.0984C288.717 24.3943 299.768 23.3613 307.922 31.2696C316.666 39.7514 315.81 50.9697 305.426 61.1961C267.146 98.8965 228.814 136.544 190.508 174.219C185.842 178.807 181.412 183.656 176.532 188.001C167.76 195.813 158.04 196.042 149.741 187.742C126.852 164.85 104.298 141.621 81.7399 118.4C75.7705 112.256 74.9909 104.595 78.9227 97.3821C83.2634 89.4192 90.4105 85.7877 100.526 88.5515Z" fill="white"/>
<path d="M578.439 125.538C577.499 116.748 573.54 109.904 566.562 105.006C559.651 100.108 550.66 97.6588 539.589 97.6588C531.805 97.6588 525.129 98.833 519.56 101.181C513.991 103.53 509.73 106.717 506.777 110.743C503.825 114.769 502.315 119.365 502.248 124.532C502.248 128.826 503.221 132.55 505.167 135.704C507.18 138.857 509.898 141.541 513.32 143.755C516.742 145.903 520.533 147.714 524.693 149.19C528.853 150.667 533.047 151.908 537.274 152.914L556.598 157.745C564.381 159.557 571.863 162.006 579.042 165.093C586.289 168.179 592.764 172.071 598.467 176.768C604.238 181.465 608.801 187.135 612.156 193.777C615.51 200.42 617.188 208.203 617.188 217.128C617.188 229.205 614.101 239.84 607.928 249.033C601.755 258.158 592.831 265.304 581.156 270.471C569.548 275.57 555.491 278.12 538.985 278.12C522.948 278.12 509.025 275.637 497.216 270.672C485.474 265.707 476.281 258.46 469.638 248.932C463.063 239.404 459.507 227.796 458.97 214.108H495.706C496.243 221.288 498.457 227.259 502.349 232.023C506.241 236.787 511.307 240.344 517.547 242.692C523.854 245.041 530.899 246.215 538.683 246.215C546.802 246.215 553.914 245.007 560.02 242.591C566.193 240.109 571.024 236.687 574.513 232.325C578.002 227.897 579.781 222.73 579.848 216.826C579.781 211.458 578.204 207.029 575.117 203.54C572.031 199.984 567.703 197.032 562.134 194.683C556.632 192.268 550.19 190.12 542.809 188.242L519.358 182.203C502.383 177.841 488.963 171.232 479.099 162.375C469.303 153.451 464.405 141.608 464.405 126.847C464.405 114.702 467.693 104.067 474.268 94.9413C480.911 85.8159 489.936 78.737 501.342 73.7047C512.749 68.6052 525.666 66.0554 540.092 66.0554C554.719 66.0554 567.535 68.6052 578.539 73.7047C589.61 78.737 598.3 85.7488 604.607 94.74C610.914 103.664 614.169 113.93 614.37 125.538H578.439ZM648.867 275V120.405H683.691V146.674H685.503C688.723 137.817 694.058 130.906 701.506 125.941C708.953 120.908 717.844 118.392 728.177 118.392C738.645 118.392 747.468 120.942 754.648 126.041C761.894 131.074 766.994 137.951 769.946 146.674H771.556C774.978 138.086 780.749 131.242 788.868 126.142C797.054 120.976 806.749 118.392 817.955 118.392C832.18 118.392 843.788 122.888 852.779 131.879C861.77 140.87 866.266 153.988 866.266 171.232V275H829.731V176.869C829.731 167.273 827.181 160.262 822.081 155.833C816.982 151.338 810.742 149.09 803.361 149.09C794.571 149.09 787.693 151.841 782.728 157.343C777.83 162.778 775.381 169.857 775.381 178.58V275H739.651V175.359C739.651 167.374 737.235 161 732.404 156.236C727.64 151.472 721.4 149.09 713.684 149.09C708.45 149.09 703.686 150.432 699.392 153.116C695.098 155.733 691.676 159.456 689.126 164.288C686.576 169.052 685.301 174.621 685.301 180.995V275H648.867ZM903.229 275V120.405H939.663V275H903.229ZM921.546 98.464C915.776 98.464 910.811 96.5517 906.651 92.7271C902.491 88.8354 900.41 84.172 900.41 78.737C900.41 73.235 902.491 68.5716 906.651 64.747C910.811 60.8553 915.776 58.9095 921.546 58.9095C927.384 58.9095 932.349 60.8553 936.442 64.747C940.602 68.5716 942.683 73.235 942.683 78.737C942.683 84.172 940.602 88.8354 936.442 92.7271C932.349 96.5517 927.384 98.464 921.546 98.464ZM1013.56 68.8736V275H977.129V68.8736H1013.56ZM1119.47 278.019C1103.97 278.019 1090.58 274.799 1079.31 268.357C1068.11 261.849 1059.48 252.656 1053.45 240.78C1047.41 228.836 1044.39 214.779 1044.39 198.608C1044.39 182.706 1047.41 168.75 1053.45 156.739C1059.55 144.661 1068.07 135.267 1079.01 128.558C1089.95 121.781 1102.8 118.392 1117.56 118.392C1127.09 118.392 1136.08 119.935 1144.53 123.022C1153.05 126.041 1160.57 130.738 1167.08 137.113C1173.65 143.487 1178.82 151.606 1182.58 161.469C1186.33 171.266 1188.21 182.941 1188.21 196.495V207.667H1061.5V183.109H1153.29C1153.22 176.13 1151.71 169.924 1148.76 164.489C1145.81 158.987 1141.68 154.659 1136.38 151.505C1131.15 148.352 1125.04 146.775 1118.06 146.775C1110.61 146.775 1104.07 148.587 1098.43 152.21C1092.8 155.766 1088.4 160.463 1085.25 166.301C1082.16 172.071 1080.59 178.412 1080.52 185.323V206.761C1080.52 215.752 1082.16 223.468 1085.45 229.91C1088.74 236.284 1093.34 241.182 1099.24 244.604C1105.14 247.959 1112.06 249.637 1119.97 249.637C1125.27 249.637 1130.07 248.899 1134.37 247.423C1138.66 245.879 1142.38 243.631 1145.54 240.679C1148.69 237.727 1151.07 234.07 1152.68 229.709L1186.7 233.533C1184.56 242.524 1180.46 250.375 1174.42 257.085C1168.45 263.727 1160.8 268.894 1151.48 272.584C1142.15 276.208 1131.48 278.019 1119.47 278.019ZM1220.65 275V68.8736H1297.94C1313.78 68.8736 1327.06 71.8259 1337.8 77.7306C1348.6 83.6352 1356.76 91.7541 1362.26 102.087C1367.83 112.353 1370.61 124.028 1370.61 137.113C1370.61 150.331 1367.83 162.073 1362.26 172.339C1356.69 182.605 1348.47 190.691 1337.6 196.595C1326.73 202.433 1313.34 205.352 1297.44 205.352H1246.21V174.654H1292.41C1301.67 174.654 1309.25 173.044 1315.15 169.823C1321.06 166.602 1325.42 162.174 1328.24 156.538C1331.12 150.901 1332.57 144.426 1332.57 137.113C1332.57 129.799 1331.12 123.358 1328.24 117.788C1325.42 112.219 1321.03 107.891 1315.05 104.805C1309.15 101.651 1301.53 100.074 1292.21 100.074H1257.99V275H1220.65ZM1401.43 275V120.405H1436.76V146.171H1438.37C1441.19 137.247 1446.02 130.369 1452.87 125.538C1459.78 120.64 1467.66 118.191 1476.52 118.191C1478.53 118.191 1480.78 118.292 1483.26 118.493C1485.81 118.627 1487.92 118.862 1489.6 119.197V152.713C1488.06 152.176 1485.61 151.707 1482.25 151.304C1478.97 150.834 1475.78 150.599 1472.69 150.599C1466.05 150.599 1460.08 152.042 1454.78 154.927C1449.54 157.745 1445.42 161.671 1442.4 166.703C1439.38 171.735 1437.87 177.54 1437.87 184.115V275H1401.43ZM1574.88 278.019C1559.78 278.019 1546.69 274.698 1535.62 268.055C1524.55 261.413 1515.96 252.119 1509.86 240.176C1503.82 228.232 1500.8 214.276 1500.8 198.306C1500.8 182.337 1503.82 168.347 1509.86 156.336C1515.96 144.326 1524.55 134.999 1535.62 128.356C1546.69 121.714 1559.78 118.392 1574.88 118.392C1589.97 118.392 1603.06 121.714 1614.13 128.356C1625.2 134.999 1633.75 144.326 1639.79 156.336C1645.9 168.347 1648.95 182.337 1648.95 198.306C1648.95 214.276 1645.9 228.232 1639.79 240.176C1633.75 252.119 1625.2 261.413 1614.13 268.055C1603.06 274.698 1589.97 278.019 1574.88 278.019ZM1575.08 248.832C1583.26 248.832 1590.11 246.584 1595.61 242.088C1601.11 237.526 1605.2 231.42 1607.89 223.77C1610.64 216.121 1612.01 207.6 1612.01 198.206C1612.01 188.745 1610.64 180.19 1607.89 172.541C1605.2 164.824 1601.11 158.685 1595.61 154.122C1590.11 149.559 1583.26 147.278 1575.08 147.278C1566.69 147.278 1559.71 149.559 1554.14 154.122C1548.64 158.685 1544.51 164.824 1541.76 172.541C1539.08 180.19 1537.74 188.745 1537.74 198.206C1537.74 207.6 1539.08 216.121 1541.76 223.77C1544.51 231.42 1548.64 237.526 1554.14 242.088C1559.71 246.584 1566.69 248.832 1575.08 248.832ZM1747.31 278.019C1732.21 278.019 1719.13 274.698 1708.06 268.055C1696.99 261.413 1688.4 252.119 1682.29 240.176C1676.25 228.232 1673.23 214.276 1673.23 198.306C1673.23 182.337 1676.25 168.347 1682.29 156.336C1688.4 144.326 1696.99 134.999 1708.06 128.356C1719.13 121.714 1732.21 118.392 1747.31 118.392C1762.41 118.392 1775.49 121.714 1786.56 128.356C1797.63 134.999 1806.19 144.326 1812.23 156.336C1818.33 168.347 1821.39 182.337 1821.39 198.306C1821.39 214.276 1818.33 228.232 1812.23 240.176C1806.19 252.119 1797.63 261.413 1786.56 268.055C1775.49 274.698 1762.41 278.019 1747.31 278.019ZM1747.51 248.832C1755.7 248.832 1762.54 246.584 1768.04 242.088C1773.55 237.526 1777.64 231.42 1780.32 223.77C1783.07 216.121 1784.45 207.6 1784.45 198.206C1784.45 188.745 1783.07 180.19 1780.32 172.541C1777.64 164.824 1773.55 158.685 1768.04 154.122C1762.54 149.559 1755.7 147.278 1747.51 147.278C1739.12 147.278 1732.15 149.559 1726.58 154.122C1721.07 158.685 1716.95 164.824 1714.2 172.541C1711.51 180.19 1710.17 188.745 1710.17 198.206C1710.17 207.6 1711.51 216.121 1714.2 223.77C1716.95 231.42 1721.07 237.526 1726.58 242.088C1732.15 246.584 1739.12 248.832 1747.51 248.832ZM1930.61 120.405V148.587H1839.23V120.405H1930.61ZM1862.07 275V105.811C1862.07 95.411 1864.22 86.7553 1868.52 79.8442C1872.88 72.933 1878.71 67.7664 1886.03 64.3444C1893.34 60.9224 1901.46 59.2114 1910.38 59.2114C1916.69 59.2114 1922.29 59.7146 1927.19 60.7211C1932.09 61.7276 1935.71 62.6334 1938.06 63.4386L1930.82 91.6199C1929.27 91.1503 1927.33 90.6806 1924.98 90.2109C1922.63 89.6741 1920.01 89.4057 1917.13 89.4057C1910.35 89.4057 1905.55 91.0496 1902.74 94.3374C1899.98 97.5582 1898.61 102.188 1898.61 108.227V275H1862.07Z" fill="white"/>
</svg>
