<svg width="1364" height="1168" viewBox="0 0 1364 1168" fill="none" xmlns="http://www.w3.org/2000/svg">
<path d="M988.827 1099.16C585.785 1285.63 126.911 1074.59 7.70226 650.456C4.73416 639.895 1.88195 629.138 0.653384 618.283C-3.84662 578.524 15.1342 549.794 50.2868 545.586C87.0498 541.186 105.848 561.789 114.48 595.512C142.83 706.265 197.655 801.513 279.619 881.776C595.479 1191.08 1124.09 1049.33 1242.19 623.253C1245.87 609.978 1248.38 596.254 1253.34 583.48C1264 556.014 1284.94 540.457 1314.33 544.475C1345.7 548.761 1362.46 570.067 1363.31 601.756C1364.28 638.34 1350.97 672.185 1338.92 705.693C1275.36 882.407 1160.03 1013.72 988.827 1099.16Z" fill="#1A1A18"/>
<path d="M401.959 250.116C450.791 276.134 479.852 319.505 517.011 353.968C552.329 386.723 587.144 420.36 618.943 456.459C643.453 484.283 661.138 481.612 685.812 456.897C808.39 334.114 932.17 212.529 1055.52 90.5131C1075.1 71.1441 1094.41 51.503 1114.23 32.382C1154.45 -6.42057 1198.64 -10.5511 1231.25 21.071C1266.21 54.986 1262.79 99.8429 1221.27 140.734C1068.2 291.481 914.927 442.019 761.758 592.662C743.103 611.01 725.388 630.397 705.875 647.773C670.798 679.01 631.932 679.926 598.748 646.737C507.225 555.201 417.042 462.318 326.842 369.469C302.973 344.899 299.856 314.266 315.578 285.426C332.934 253.586 361.512 239.065 401.959 250.116Z" fill="#03451C"/>
</svg>
